<svg width="24" height="24" viewBox="0 0 24 24" fill="none" xmlns="http://www.w3.org/2000/svg">
<path d="M9.0456 15.572C9.0456 15.9488 8.9856 16.3352 8.868 16.7312C8.7504 17.1272 8.5488 17.4848 8.2608 17.8064C7.9728 18.1256 7.632 18.2864 7.236 18.2864C6.84 18.2864 6.4992 18.1256 6.2112 17.8064C5.9232 17.4872 5.7216 17.1272 5.604 16.7312C5.4864 16.3352 5.4264 15.9488 5.4264 15.572C5.4264 15.1952 5.4864 14.8088 5.604 14.4128C5.7216 14.0168 5.9232 13.6592 6.2112 13.3376C6.4992 13.0184 6.84 12.8576 7.236 12.8576C7.632 12.8576 7.9728 13.0184 8.2608 13.3376C8.5488 13.6568 8.7504 14.0168 8.868 14.4128C8.988 14.8088 9.0456 15.1952 9.0456 15.572ZM18.0912 15.572C18.0912 15.9488 18.0312 16.3352 17.9136 16.7312C17.796 17.1272 17.5944 17.4848 17.3064 17.8064C17.0184 18.1256 16.6776 18.2864 16.2816 18.2864C15.8856 18.2864 15.5448 18.1256 15.2568 17.8064C14.9688 17.4872 14.7672 17.1272 14.6496 16.7312C14.532 16.3352 14.472 15.9488 14.472 15.572C14.472 15.1952 14.532 14.8088 14.6496 14.4128C14.7672 14.0168 14.9688 13.6592 15.2568 13.3376C15.5448 13.0184 15.8856 12.8576 16.2816 12.8576C16.6776 12.8576 17.0184 13.0184 17.3064 13.3376C17.5944 13.6568 17.796 14.0168 17.9136 14.4128C18.0336 14.8088 18.0912 15.1952 18.0912 15.572ZM20.3544 15.572C20.3544 14.4416 20.0304 13.4792 19.38 12.6896C18.7296 11.8976 17.8488 11.5016 16.7376 11.5016C16.3512 11.5016 15.432 11.6 13.9824 11.7992C13.3128 11.9024 12.5736 11.9552 11.7624 11.9552C10.9512 11.9552 10.212 11.9024 9.5424 11.7992C8.1096 11.6024 7.1904 11.5016 6.7872 11.5016C5.676 11.5016 4.7952 11.8976 4.1448 12.6896C3.4944 13.4816 3.1704 14.4416 3.1704 15.572C3.1704 16.4024 3.3216 17.1248 3.6216 17.7416C3.924 18.3584 4.3056 18.8432 4.7664 19.1984C5.2272 19.5512 5.8032 19.8344 6.492 20.0456C7.1808 20.2568 7.8384 20.396 8.472 20.4632C9.1032 20.528 9.8064 20.5616 10.5792 20.5616H12.9528C13.7256 20.5616 14.4264 20.528 15.06 20.4632C15.6912 20.3984 16.3512 20.2592 17.04 20.0456C17.7288 19.8344 18.3024 19.5512 18.7656 19.1984C19.2264 18.8456 19.608 18.3608 19.9104 17.7416C20.2032 17.1248 20.3544 16.4 20.3544 15.572ZM23.52 13.0832C23.52 15.0344 23.232 16.5944 22.6584 17.7608C22.3008 18.4856 21.804 19.112 21.168 19.64C20.532 20.168 19.8672 20.5736 19.176 20.8544C18.4824 21.1376 17.6832 21.3608 16.7736 21.5264C15.864 21.692 15.0552 21.7952 14.3496 21.8384C13.644 21.8816 12.8568 21.9032 11.988 21.9032C11.2536 21.9032 10.584 21.8888 9.9816 21.86C9.3792 21.8312 8.6832 21.7736 7.896 21.6824C7.1088 21.5912 6.3912 21.452 5.7408 21.2576C5.0904 21.0632 4.4448 20.8208 3.804 20.5304C3.1632 20.2376 2.592 19.856 2.0928 19.3856C1.5936 18.9152 1.188 18.3728 0.8784 17.7608C0.2928 16.604 0 15.044 0 13.0832C0 10.8488 0.6408 8.984 1.9224 7.4864C1.668 6.7136 1.5408 5.912 1.5408 5.084C1.5408 3.992 1.7808 2.9648 2.2608 2.0024C3.2784 2.0024 4.1736 2.1896 4.9464 2.5616C5.7192 2.9336 6.6096 3.5168 7.6176 4.3064C9.0024 3.9776 10.4592 3.812 11.9856 3.812C13.38 3.812 14.7 3.9632 15.9432 4.2632C16.932 3.4904 17.8128 2.9216 18.5856 2.552C19.3584 2.1848 20.2488 2 21.2568 2C21.7368 2.96 21.9768 3.9872 21.9768 5.0816C21.9768 5.9024 21.8496 6.692 21.5952 7.4552C22.8792 8.9648 23.52 10.8416 23.52 13.0832Z" fill="black"/>
</svg>
