<svg width="27" height="27" viewBox="0 0 27 27" fill="none" xmlns="http://www.w3.org/2000/svg">
<path d="M18.3115 0.27H5.08148C3.75308 0.27 2.67578 1.3473 2.67578 2.6757V24.3243C2.67578 25.6527 3.75308 26.73 5.08148 26.73H21.9187C23.2471 26.73 24.3244 25.6527 24.3244 24.3243V6.885L18.3115 0.27ZM23.1202 24.3243C23.1202 24.9885 22.5802 25.5258 21.9187 25.5258H5.08148C4.41728 25.5258 3.87998 24.9885 3.87998 24.3243V2.6757C3.87998 2.0115 4.41998 1.4742 5.08148 1.4742H15.9058V7.4871C15.9058 8.1513 16.4458 8.6886 17.1073 8.6886H23.1202V24.3243ZM17.1073 7.4871V1.4715H17.7094L23.1202 7.4844H17.1073V7.4871Z" fill="black"/>
</svg>
